<svg width="52" height="52" viewBox="0 0 52 52" fill="none" xmlns="http://www.w3.org/2000/svg">
<path d="M26 6.5C31.0609 10.9776 37.6663 13.3089 44.4166 13C45.3994 16.3432 45.7001 19.8498 45.3009 23.3116C44.9017 26.7733 43.8107 30.1194 42.0927 33.1512C40.3747 36.1829 38.0648 38.8383 35.3003 40.9597C32.5358 43.0811 29.373 44.6251 26 45.5C22.6269 44.6251 19.4642 43.0811 16.6996 40.9597C13.9351 38.8383 11.6252 36.1829 9.90726 33.1512C8.18928 30.1194 7.09826 26.7733 6.69903 23.3116C6.2998 19.8498 6.60052 16.3432 7.5833 13C14.3336 13.3089 20.939 10.9776 26 6.5Z" fill="white" stroke="#283593" stroke-width="1.3" stroke-linecap="round" stroke-linejoin="round"/>
<mask id="mask0_0_667" style="mask-type:alpha" maskUnits="userSpaceOnUse" x="5" y="5" width="42" height="42">
<path d="M26 6.5C31.0609 10.9776 37.6663 13.3089 44.4166 13C45.3994 16.3432 45.7001 19.8498 45.3009 23.3116C44.9017 26.7733 43.8107 30.1194 42.0927 33.1512C40.3747 36.1829 38.0648 38.8383 35.3003 40.9597C32.5358 43.0811 29.373 44.6251 26 45.5C22.6269 44.6251 19.4642 43.0811 16.6996 40.9597C13.9351 38.8383 11.6252 36.1829 9.90726 33.1512C8.18928 30.1194 7.09826 26.7733 6.69903 23.3116C6.2998 19.8498 6.60052 16.3432 7.5833 13C14.3336 13.3089 20.939 10.9776 26 6.5Z" fill="white" stroke="#283593" stroke-width="1.3" stroke-linecap="round" stroke-linejoin="round"/>
</mask>
<g mask="url(#mask0_0_667)">
<path d="M30.68 21.45C30.68 21.7373 30.7895 22.0129 30.9846 22.216C31.1796 22.4192 31.4442 22.5333 31.72 22.5333C31.9958 22.5333 32.2603 22.4192 32.4554 22.216C32.6504 22.0129 32.76 21.7373 32.76 21.45C32.76 21.1627 32.6504 20.8871 32.4554 20.684C32.2603 20.4808 31.9958 20.3667 31.72 20.3667C31.4442 20.3667 31.1796 20.4808 30.9846 20.684C30.7895 20.8871 30.68 21.1627 30.68 21.45Z" stroke="#283593" stroke-width="1.3" stroke-linecap="round" stroke-linejoin="round"/>
<path d="M28.6 21.45C28.6 20.5881 28.9287 19.7614 29.5138 19.1519C30.0989 18.5424 30.8925 18.2 31.72 18.2H35.88C36.7075 18.2 37.501 18.5424 38.0861 19.1519C38.6713 19.7614 39 20.5881 39 21.45C39 22.312 38.6713 23.1386 38.0861 23.7481C37.501 24.3576 36.7075 24.7 35.88 24.7H31.72C30.8925 24.7 30.0989 24.3576 29.5138 23.7481C28.9287 23.1386 28.6 22.312 28.6 21.45Z" stroke="#283593" stroke-width="1.3" stroke-linecap="round" stroke-linejoin="round"/>
<path d="M30.68 12.35C30.68 12.6373 30.7895 12.9129 30.9846 13.116C31.1796 13.3192 31.4442 13.4333 31.72 13.4333C31.9958 13.4333 32.2603 13.3192 32.4554 13.116C32.6504 12.9129 32.76 12.6373 32.76 12.35C32.76 12.0627 32.6504 11.7871 32.4554 11.584C32.2603 11.3808 31.9958 11.2667 31.72 11.2667C31.4442 11.2667 31.1796 11.3808 30.9846 11.584C30.7895 11.7871 30.68 12.0627 30.68 12.35Z" stroke="#283593" stroke-width="1.3" stroke-linecap="round" stroke-linejoin="round"/>
<path d="M28.6 12.35C28.6 11.4881 28.9287 10.6614 29.5138 10.0519C30.0989 9.44242 30.8925 9.10001 31.72 9.10001H35.88C36.7075 9.10001 37.501 9.44242 38.0861 10.0519C38.6713 10.6614 39 11.4881 39 12.35C39 13.212 38.6713 14.0386 38.0861 14.6481C37.501 15.2576 36.7075 15.6 35.88 15.6H31.72C30.8925 15.6 30.0989 15.2576 29.5138 14.6481C28.9287 14.0386 28.6 13.212 28.6 12.35Z" stroke="#283593" stroke-width="1.3" stroke-linecap="round" stroke-linejoin="round"/>
<path d="M30.68 30.55C30.68 30.8373 30.7895 31.1129 30.9846 31.316C31.1796 31.5192 31.4442 31.6333 31.72 31.6333C31.9958 31.6333 32.2603 31.5192 32.4554 31.316C32.6504 31.1129 32.76 30.8373 32.76 30.55C32.76 30.2627 32.6504 29.9871 32.4554 29.784C32.2603 29.5808 31.9958 29.4667 31.72 29.4667C31.4442 29.4667 31.1796 29.5808 30.9846 29.784C30.7895 29.9871 30.68 30.2627 30.68 30.55Z" stroke="#283593" stroke-width="1.3" stroke-linecap="round" stroke-linejoin="round"/>
<path d="M28.6 30.55C28.6 29.688 28.9287 28.8614 29.5138 28.2519C30.0989 27.6424 30.8925 27.3 31.72 27.3H35.88C36.7075 27.3 37.501 27.6424 38.0861 28.2519C38.6713 28.8614 39 29.688 39 30.55C39 31.4119 38.6713 32.2386 38.0861 32.8481C37.501 33.4576 36.7075 33.8 35.88 33.8H31.72C30.8925 33.8 30.0989 33.4576 29.5138 32.8481C28.9287 32.2386 28.6 31.4119 28.6 30.55Z" stroke="#283593" stroke-width="1.3" stroke-linecap="round" stroke-linejoin="round"/>
<path d="M30.68 39.65C30.68 39.9373 30.7895 40.2129 30.9846 40.416C31.1796 40.6192 31.4442 40.7333 31.72 40.7333C31.9958 40.7333 32.2603 40.6192 32.4554 40.416C32.6504 40.2129 32.76 39.9373 32.76 39.65C32.76 39.3627 32.6504 39.0871 32.4554 38.884C32.2603 38.6808 31.9958 38.5667 31.72 38.5667C31.4442 38.5667 31.1796 38.6808 30.9846 38.884C30.7895 39.0871 30.68 39.3627 30.68 39.65Z" stroke="#283593" stroke-width="1.3" stroke-linecap="round" stroke-linejoin="round"/>
<path d="M28.6 39.65C28.6 38.788 28.9287 37.9614 29.5138 37.3519C30.0989 36.7424 30.8925 36.4 31.72 36.4H35.88C36.7075 36.4 37.501 36.7424 38.0861 37.3519C38.6713 37.9614 39 38.788 39 39.65C39 40.5119 38.6713 41.3386 38.0861 41.9481C37.501 42.5576 36.7075 42.9 35.88 42.9H31.72C30.8925 42.9 30.0989 42.5576 29.5138 41.9481C28.9287 41.3386 28.6 40.5119 28.6 39.65Z" stroke="#283593" stroke-width="1.3" stroke-linecap="round" stroke-linejoin="round"/>
</g>
<path d="M26 6.5C31.0609 10.9776 37.6663 13.3089 44.4166 13C45.3994 16.3432 45.7001 19.8498 45.3009 23.3116C44.9017 26.7733 43.8107 30.1194 42.0927 33.1512C40.3747 36.1829 38.0648 38.8383 35.3003 40.9597C32.5358 43.0811 29.373 44.6251 26 45.5C22.6269 44.6251 19.4642 43.0811 16.6996 40.9597C13.9351 38.8383 11.6252 36.1829 9.90726 33.1512C8.18928 30.1194 7.09826 26.7733 6.69903 23.3116C6.2998 19.8498 6.60052 16.3432 7.5833 13C14.3336 13.3089 20.939 10.9776 26 6.5Z" stroke="#283593" stroke-width="1.3" stroke-linecap="round" stroke-linejoin="round"/>
<path d="M21.836 23.5618L21.9016 23.8007H22.1494H23.479H23.8663L23.799 23.4192C23.6817 22.7547 23.4543 22.1286 23.1175 21.5424C22.7851 20.9512 22.3575 20.431 21.8362 19.9826C21.3162 19.5267 20.7148 19.1706 20.0351 18.9132C19.352 18.6528 18.6037 18.525 17.7938 18.525C16.8518 18.525 15.9833 18.7039 15.1936 19.0668C14.4061 19.424 13.7242 19.9403 13.1496 20.6123L13.1496 20.6123L13.1487 20.6134C12.5782 21.2862 12.1414 22.0906 11.8346 23.0207C11.5265 23.9545 11.375 24.9937 11.375 26.1348C11.375 27.6493 11.6377 28.984 12.1743 30.1297L12.175 30.1312C12.7155 31.2701 13.4764 32.1633 14.4596 32.7992L14.4606 32.7998C15.4471 33.433 16.5922 33.7446 17.8838 33.7446C19.0401 33.7446 20.0773 33.4936 20.986 32.9827C21.8942 32.4722 22.6084 31.7471 23.1261 30.8144C23.647 29.8756 23.9009 28.7735 23.9009 27.5198V26.3564V26.0314H23.5759H18.1885H17.8635V26.3564V27.5198V27.8448H18.1885H21.9802C21.9371 28.5996 21.7657 29.251 21.4739 29.806L21.4732 29.8075C21.1263 30.4756 20.6469 30.9827 20.0337 31.338C19.4199 31.6935 18.7065 31.8759 17.8838 31.8759C16.986 31.8759 16.1991 31.6514 15.5128 31.2083C14.8313 30.7608 14.2871 30.1156 13.8847 29.2583C13.4849 28.4067 13.2784 27.3691 13.2784 26.1348C13.2784 24.8956 13.4827 23.8555 13.878 23.0038C14.281 22.1456 14.8211 21.5029 15.4934 21.0604C16.1666 20.6172 16.9302 20.3938 17.7938 20.3938C18.3476 20.3938 18.8396 20.4766 19.274 20.6368L19.2749 20.6372C19.7206 20.8 20.1084 21.0254 20.4416 21.3122L20.4416 21.3123L20.445 21.3151C20.7864 21.601 21.0721 21.9357 21.3029 22.3203L21.3037 22.3217C21.5371 22.7064 21.7146 23.1194 21.836 23.5618Z" fill="#78909C" stroke="#546E7A" stroke-width="0.65"/>
</svg>
