<svg width="24" height="24" viewBox="0 0 24 24" fill="none" xmlns="http://www.w3.org/2000/svg">
<path d="M20 5.6V18.4C20 19.2837 19.2041 20 18.2222 20H5.77778C4.79594 20 4 19.2837 4 18.4V5.6C4 4.71634 4.79594 4 5.77778 4H18.2222C19.2041 4 20 4.71634 20 5.6Z" stroke="#607D8B" stroke-width="1.81824" stroke-linecap="round" stroke-linejoin="round"/>
<path d="M4 9H9.71429V7" stroke="#607D8B" stroke-width="1.81824" stroke-linecap="round" stroke-linejoin="round"/>
<path d="M20 9H14.2857V7" stroke="#607D8B" stroke-width="1.81824" stroke-linecap="round" stroke-linejoin="round"/>
<path d="M15.4286 12.5L12 11L8.57141 12.5M15.4286 12.5V15.5L12 17M15.4286 12.5L12 14M12 17L8.57141 15.5V12.5M12 17V14M8.57141 12.5L12 14" stroke="#607D8B" stroke-linecap="round" stroke-linejoin="round"/>
</svg>
