<svg width="24" height="24" viewBox="0 0 24 24" fill="none" xmlns="http://www.w3.org/2000/svg">
<path d="M20 5.6V18.4C20 19.2837 19.2041 20 18.2222 20H5.77778C4.79594 20 4 19.2837 4 18.4V5.6C4 4.71634 4.79594 4 5.77778 4H18.2222C19.2041 4 20 4.71634 20 5.6Z" stroke="#607D8B" stroke-width="1.81824" stroke-linecap="round" stroke-linejoin="round"/>
<path d="M4 9H9.71429V7" stroke="#607D8B" stroke-width="1.81824" stroke-linecap="round" stroke-linejoin="round"/>
<path d="M20 9H14.2857V7" stroke="#607D8B" stroke-width="1.81824" stroke-linecap="round" stroke-linejoin="round"/>
<path d="M11.3579 13.663L8.78459 15.9134C8.50035 16.162 8.50035 16.565 8.78459 16.8136C9.06883 17.0622 9.52968 17.0622 9.81393 16.8136L12.3873 14.5632" fill="#283593"/>
<path d="M11.3583 13.663C11.0512 12.9778 11.1112 12.0787 11.7443 11.5251C12.3773 10.9715 13.5456 10.85 14.189 11.1875L13.0824 12.1552L12.9795 13.1454L14.1117 13.0554L15.2183 12.0877C15.6043 12.6503 15.4653 13.672 14.8323 14.2256C14.1992 14.7792 13.1711 14.8317 12.3876 14.5632" fill="#607D8B"/>
</svg>
